HIERARCHY
ROOT Hips
{
	OFFSET -2.439626 86.173584 3.652770
	CHANNELS 6 Xposition Yposition Zposition Zrotation Yrotation Xrotation 
	JOINT Spine
	{
		OFFSET 0.000000 8.814246 -2.080107
		CHANNELS 3 Zrotation Yrotation Xrotation
		JOINT Spine1
		{
			OFFSET -0.000000 8.844141 0.000000
			CHANNELS 3 Zrotation Yrotation Xrotation
			JOINT Spine2
			{
				OFFSET -0.000000 11.682268 -0.000000
				CHANNELS 3 Zrotation Yrotation Xrotation
				JOINT Spine3
				{
					OFFSET -0.000000 11.746700 0.000000
					CHANNELS 3 Zrotation Yrotation Xrotation
					JOINT Neck
					{
						OFFSET -0.000000 17.658264 -0.000000
						CHANNELS 3 Zrotation Yrotation Xrotation
						JOINT Neck1
						{
							OFFSET -0.000000 5.101515 0.000000
							CHANNELS 3 Zrotation Yrotation Xrotation
							JOINT Head
							{
								OFFSET -0.000000 5.101515 -0.000000
								CHANNELS 3 Zrotation Yrotation Xrotation
								JOINT HeadEnd
								{
									OFFSET -0.000000 11.655085 0.000000
									CHANNELS 3 Zrotation Yrotation Xrotation
									End Site
									{
										OFFSET 0.000000 0.000000 0.000000
									}
								}
							}
						}
					}
					JOINT RightShoulder
					{
						OFFSET -2.625389 11.175210 -0.000000
						CHANNELS 3 Zrotation Yrotation Xrotation
						JOINT RightArm
						{
							OFFSET 0.000000 10.434715 -0.000000
							CHANNELS 3 Zrotation Yrotation Xrotation
							JOINT RightForeArm
							{
								OFFSET -0.000000 29.628420 -0.000000
								CHANNELS 3 Zrotation Yrotation Xrotation
								JOINT RightHand
								{
									OFFSET -0.000000 22.857611 0.000000
									CHANNELS 3 Zrotation Yrotation Xrotation
									JOINT RightHandThumb1
									{
										OFFSET -2.867323 3.959563 2.944291
										CHANNELS 3 Zrotation Yrotation Xrotation
										JOINT RightHandThumb2
										{
											OFFSET -0.000000 3.350399 0.000000
											CHANNELS 3 Zrotation Yrotation Xrotation
											JOINT RightHandThumb3
											{
												OFFSET 0.000000 3.756509 0.000000
												CHANNELS 3 Zrotation Yrotation Xrotation
												JOINT RightHandThumb4
												{
													OFFSET -0.000000 3.147345 -0.000000
													CHANNELS 3 Zrotation Yrotation Xrotation
													End Site
													{
														OFFSET 0.000000 0.000000 0.000000
													}
												}
											}
										}
									}
									JOINT RightHandIndex1
									{
										OFFSET -0.086752 10.030893 2.345280
										CHANNELS 3 Zrotation Yrotation Xrotation
										JOINT RightHandIndex2
										{
											OFFSET -0.000000 4.061090 -0.000000
											CHANNELS 3 Zrotation Yrotation Xrotation
											JOINT RightHandIndex3
											{
												OFFSET -0.000000 3.248873 -0.000000
												CHANNELS 3 Zrotation Yrotation Xrotation
												JOINT RightHandIndex4
												{
													OFFSET -0.000000 2.639709 -0.000000
													CHANNELS 3 Zrotation Yrotation Xrotation
													End Site
													{
														OFFSET 0.000000 0.000000 0.000000
													}
												}
											}
										}
									}
									JOINT RightHandMiddle1
									{
										OFFSET 0.104102 9.502952 0.006768
										CHANNELS 3 Zrotation Yrotation Xrotation
										JOINT RightHandMiddle2
										{
											OFFSET -0.000000 4.568727 -0.000000
											CHANNELS 3 Zrotation Yrotation Xrotation
											JOINT RightHandMiddle3
											{
												OFFSET -0.000000 3.654981 0.000000
												CHANNELS 3 Zrotation Yrotation Xrotation
												JOINT RightHandMiddle4
												{
													OFFSET 0.000000 2.741236 0.000000
													CHANNELS 3 Zrotation Yrotation Xrotation
													End Site
													{
														OFFSET 0.000000 0.000000 0.000000
													}
												}
											}
										}
									}
									JOINT RightHandRing1
									{
										OFFSET 0.086752 8.921708 -2.267442
										CHANNELS 3 Zrotation Yrotation Xrotation
										JOINT RightHandRing2
										{
											OFFSET -0.000000 4.061090 -0.000000
											CHANNELS 3 Zrotation Yrotation Xrotation
											JOINT RightHandRing3
											{
												OFFSET 0.000000 3.654981 0.000000
												CHANNELS 3 Zrotation Yrotation Xrotation
												JOINT RightHandRing4
												{
													OFFSET 0.000000 2.741236 0.000000
													CHANNELS 3 Zrotation Yrotation Xrotation
													End Site
													{
														OFFSET 0.000000 0.000000 0.000000
													}
												}
											}
										}
									}
									JOINT RightHandPinky1
									{
										OFFSET -0.173504 7.976997 -4.467199
										CHANNELS 3 Zrotation Yrotation Xrotation
										JOINT RightHandPinky2
										{
											OFFSET -0.000000 3.350399 -0.000000
											CHANNELS 3 Zrotation Yrotation Xrotation
											JOINT RightHandPinky3
											{
												OFFSET -0.000000 2.842763 -0.000000
												CHANNELS 3 Zrotation Yrotation Xrotation
												JOINT RightHandPinky4
												{
													OFFSET 0.000000 2.639709 -0.000000
													CHANNELS 3 Zrotation Yrotation Xrotation
													End Site
													{
														OFFSET 0.000000 0.000000 0.000000
													}
												}
											}
										}
									}
									JOINT RightForeArmEnd
									{
										OFFSET 0.000000 0.000000 0.000000
										CHANNELS 3 Zrotation Yrotation Xrotation
										End Site
										{
											OFFSET 0.000000 0.000000 0.000000
										}
									}
								}
								JOINT RightArmEnd
								{
									OFFSET 0.000000 0.000000 0.000000
									CHANNELS 3 Zrotation Yrotation Xrotation
									End Site
									{
										OFFSET 0.000000 0.000000 0.000000
									}
								}
							}
						}
					}
					JOINT LeftShoulder
					{
						OFFSET 2.625389 11.175210 0.000000
						CHANNELS 3 Zrotation Yrotation Xrotation
						JOINT LeftArm
						{
							OFFSET 0.000000 10.813635 0.000000
							CHANNELS 3 Zrotation Yrotation Xrotation
							JOINT LeftForeArm
							{
								OFFSET 0.000000 28.724781 -0.000000
								CHANNELS 3 Zrotation Yrotation Xrotation
								JOINT LeftHand
								{
									OFFSET 0.644384 25.716167 -0.328871
									CHANNELS 3 Zrotation Yrotation Xrotation
									JOINT LeftHandThumb1
									{
										OFFSET 2.867323 3.959563 2.944291
										CHANNELS 3 Zrotation Yrotation Xrotation
										JOINT LeftHandThumb2
										{
											OFFSET -0.000000 3.350399 0.000000
											CHANNELS 3 Zrotation Yrotation Xrotation
											JOINT LeftHandThumb3
											{
												OFFSET -0.000000 3.756509 0.000000
												CHANNELS 3 Zrotation Yrotation Xrotation
												JOINT LeftHandThumb4
												{
													OFFSET -0.000000 3.100000 0.000000
													CHANNELS 3 Zrotation Yrotation Xrotation
													End Site
													{
														OFFSET 0.000000 0.000000 0.000000
													}
												}
											}
										}
									}
									JOINT LeftHandIndex1
									{
										OFFSET 0.086752 10.030893 2.345280
										CHANNELS 3 Zrotation Yrotation Xrotation
										JOINT LeftHandIndex2
										{
											OFFSET -0.000000 4.061090 0.000000
											CHANNELS 3 Zrotation Yrotation Xrotation
											JOINT LeftHandIndex3
											{
												OFFSET -0.000000 3.248873 0.000000
												CHANNELS 3 Zrotation Yrotation Xrotation
												JOINT LeftHandIndex4
												{
													OFFSET -0.000000 2.639709 0.000000
													CHANNELS 3 Zrotation Yrotation Xrotation
													End Site
													{
														OFFSET 0.000000 0.000000 0.000000
													}
												}
											}
										}
									}
									JOINT LeftHandMiddle1
									{
										OFFSET -0.104102 9.502952 0.006768
										CHANNELS 3 Zrotation Yrotation Xrotation
										JOINT LeftHandMiddle2
										{
											OFFSET -0.000000 4.568727 0.000000
											CHANNELS 3 Zrotation Yrotation Xrotation
											JOINT LeftHandMiddle3
											{
												OFFSET 0.000000 3.654981 0.000000
												CHANNELS 3 Zrotation Yrotation Xrotation
												JOINT LeftHandMiddle4
												{
													OFFSET -0.000000 2.741236 0.000000
													CHANNELS 3 Zrotation Yrotation Xrotation
													End Site
													{
														OFFSET 0.000000 0.000000 0.000000
													}
												}
											}
										}
									}
									JOINT LeftHandRing1
									{
										OFFSET -0.086752 8.921708 -2.267442
										CHANNELS 3 Zrotation Yrotation Xrotation
										JOINT LeftHandRing2
										{
											OFFSET 0.000000 4.061090 -0.000000
											CHANNELS 3 Zrotation Yrotation Xrotation
											JOINT LeftHandRing3
											{
												OFFSET 0.000000 3.654981 -0.000000
												CHANNELS 3 Zrotation Yrotation Xrotation
												JOINT LeftHandRing4
												{
													OFFSET 0.000000 2.741236 -0.000000
													CHANNELS 3 Zrotation Yrotation Xrotation
													End Site
													{
														OFFSET 0.000000 0.000000 0.000000
													}
												}
											}
										}
									}
									JOINT LeftHandPinky1
									{
										OFFSET 0.173504 7.976997 -4.467199
										CHANNELS 3 Zrotation Yrotation Xrotation
										JOINT LeftHandPinky2
										{
											OFFSET -0.000000 3.350399 0.000000
											CHANNELS 3 Zrotation Yrotation Xrotation
											JOINT LeftHandPinky3
											{
												OFFSET 0.000000 2.842763 -0.000000
												CHANNELS 3 Zrotation Yrotation Xrotation
												JOINT LeftHandPinky4
												{
													OFFSET -0.000000 2.639709 0.000000
													CHANNELS 3 Zrotation Yrotation Xrotation
													End Site
													{
														OFFSET 0.000000 0.000000 0.000000
													}
												}
											}
										}
									}
									JOINT LeftForeArmEnd
									{
										OFFSET 0.000000 0.000000 0.000000
										CHANNELS 3 Zrotation Yrotation Xrotation
										End Site
										{
											OFFSET 0.000000 0.000000 0.000000
										}
									}
								}
								JOINT LeftArmEnd
								{
									OFFSET 0.000000 0.000000 0.000000
									CHANNELS 3 Zrotation Yrotation Xrotation
									End Site
									{
										OFFSET 0.000000 0.000000 0.000000
									}
								}
							}
						}
					}
				}
			}
		}
	}
	JOINT RightUpLeg
	{
		OFFSET -11.289943 0.000000 0.000000
		CHANNELS 3 Zrotation Yrotation Xrotation
		JOINT RightLeg
		{
			OFFSET -0.000000 -38.200325 0.000000
			CHANNELS 3 Zrotation Yrotation Xrotation
			JOINT RightFoot
			{
				OFFSET -0.000000 -39.900856 -0.000000
				CHANNELS 3 Zrotation Yrotation Xrotation
				JOINT RightToeBase
				{
					OFFSET 0.000000 -0.000000 15.261641
					CHANNELS 3 Zrotation Yrotation Xrotation
					JOINT RightToeBaseEnd
					{
						OFFSET -0.000000 -0.000000 7.370709
						CHANNELS 3 Zrotation Yrotation Xrotation
						End Site
						{
							OFFSET 0.000000 0.000000 0.000000
						}
					}
				}
				JOINT RightLegEnd
				{
					OFFSET 0.000000 0.000000 0.000000
					CHANNELS 3 Zrotation Yrotation Xrotation
					End Site
					{
						OFFSET 0.000000 0.000000 0.000000
					}
				}
			}
			JOINT RightUpLegEnd
			{
				OFFSET 0.000000 0.000000 0.000000
				CHANNELS 3 Zrotation Yrotation Xrotation
				End Site
				{
					OFFSET 0.000000 0.000000 0.000000
				}
			}
		}
	}
	JOINT LeftUpLeg
	{
		OFFSET 11.315661 0.000000 -0.000000
		CHANNELS 3 Zrotation Yrotation Xrotation
		JOINT LeftLeg
		{
			OFFSET 0.000000 -38.200325 0.000000
			CHANNELS 3 Zrotation Yrotation Xrotation
			JOINT LeftFoot
			{
				OFFSET -0.000000 -39.900856 -0.000000
				CHANNELS 3 Zrotation Yrotation Xrotation
				JOINT LeftToeBase
				{
					OFFSET 0.000000 0.000000 15.261641
					CHANNELS 3 Zrotation Yrotation Xrotation
					JOINT LeftToeBaseEnd
					{
						OFFSET -0.000000 0.000000 7.539996
						CHANNELS 3 Zrotation Yrotation Xrotation
						End Site
						{
							OFFSET 0.000000 0.000000 0.000000
						}
					}
				}
				JOINT LeftLegEnd
				{
					OFFSET 0.000000 0.000000 0.000000
					CHANNELS 3 Zrotation Yrotation Xrotation
					End Site
					{
						OFFSET 0.000000 0.000000 0.000000
					}
				}
			}
			JOINT LeftUpLegEnd
			{
				OFFSET 0.000000 0.000000 0.000000
				CHANNELS 3 Zrotation Yrotation Xrotation
				End Site
				{
					OFFSET 0.000000 0.000000 0.000000
				}
			}
		}
	}
}
MOTION
Frames: 5
Frame Time: 0.016667
-2.439626 86.173584 3.652770 -4.340192 -0.540032 -7.079077 8.189545 -1.373846 -0.506912 -14.959209 5.092192 10.375172 18.966938 -3.659722 1.468054 -4.205472 0.926831 -0.017792 -5.318305 -5.444463 10.252134 3.092715 -4.217206 -7.856593 0.903631 -3.049664 -23.483288 0.000000 0.000000 0.000000 94.569145 -0.371653 4.186651 56.153770 -34.058048 3.889308 -0.747809 13.852534 43.881889 1.021416 24.343164 -10.248108 7.651653 -1.517517 41.228924 0.000000 0.000000 -18.719999 0.000000 0.000000 -13.000000 0.000000 0.000000 0.000000 3.538488 16.643246 -12.102950 4.745957 -0.937095 -1.442020 4.745320 0.059473 -1.359301 0.000000 0.000000 0.000000 7.328285 6.815425 -13.250185 6.216766 -0.959940 -0.760334 6.215802 0.041430 -0.652044 0.000000 0.000000 0.000000 15.221197 -8.768272 -13.134092 9.164553 1.887652 1.438404 9.159541 -0.087461 1.119936 0.000000 0.000000 0.000000 22.863670 -25.240561 -14.855993 10.661115 3.532511 5.017934 10.640880 -0.398628 4.278499 0.000000 0.000000 0.000000 0.000000 0.000000 0.000000 0.000000 0.000000 0.000000 -95.493698 0.370292 3.583286 -73.075745 33.891457 -16.285570 -5.109317 -15.669598 45.339783 -2.525950 -16.306862 -16.507067 -10.039282 1.787270 40.137463 0.000001 0.000000 -24.480000 0.000000 0.000000 -16.999998 0.000000 0.000000 0.000000 -16.512638 16.734129 -10.445769 -9.063457 -0.767270 2.746433 -9.062700 0.220592 2.588984 0.000000 0.000000 0.000000 -15.787350 6.843281 -12.205705 -9.963078 -0.890130 1.220863 -9.961883 0.095095 1.046403 0.000000 0.000000 0.000000 -14.604226 -8.753955 -13.535376 -11.609344 1.813642 -1.814567 -11.603611 -0.140648 -1.412848 0.000000 0.000000 0.000000 -10.550231 -24.894320 -17.922760 -11.886624 3.418959 -5.588609 -11.865608 -0.495488 -4.765315 0.000000 0.000000 0.000000 0.000000 0.000000 0.000000 0.000000 0.000000 0.000000 1.364321 2.231452 1.814133 -0.197430 -0.639211 17.164349 -3.594904 -0.852641 14.522296 0.352348 -0.340583 -28.699484 0.000000 0.000000 0.000000 0.000000 0.000000 0.000000 0.000000 0.000000 0.000000 16.649248 -3.882379 -2.065566 0.455056 1.181101 21.072592 -9.332852 11.826220 16.532209 0.806439 0.599743 -27.755955 0.000000 0.000000 0.000000 0.000000 0.000000 0.000000 0.000000 0.000000 0.000000 
-1.080714 85.964180 3.788458 -3.518618 -1.372747 -9.538164 2.965748 -0.788523 5.175147 -5.815513 1.355401 5.291082 9.147076 -2.513265 6.061896 0.943897 0.827706 1.048959 -3.042769 -5.340532 10.872636 3.150824 -2.997692 -6.038494 0.032392 -3.856452 -21.968201 0.000000 0.000000 0.000000 93.851654 -0.562278 4.680882 54.883808 -34.187950 9.303454 0.267125 10.862294 39.257080 -3.788056 20.390234 -9.028580 7.605939 -1.574318 41.176750 -0.000000 0.000048 -18.747492 0.000011 0.000014 -13.051801 0.000007 -0.000009 -0.000016 3.462715 16.147963 -10.061482 5.883253 -0.951758 -1.543380 6.113031 -0.006424 -1.477884 -0.000020 -0.000042 -0.000022 6.595580 6.645517 -11.123918 6.515688 -0.942962 -0.711757 6.621360 0.029696 -0.625458 0.000058 0.000035 0.000003 13.233441 -8.599746 -10.502172 8.354143 1.894465 1.106061 8.245621 -0.044031 0.872734 0.000016 -0.000028 0.000001 20.390181 -24.484488 -12.301247 9.231797 3.749833 3.293268 9.086329 -0.112795 2.841597 -0.000403 -0.000010 0.000068 0.000000 0.000000 0.000000 0.000000 0.000000 0.000000 -95.102135 1.570002 3.999569 -73.510864 37.395382 -13.696712 -3.989228 -19.936325 47.888008 -3.238653 -11.160164 -16.943121 -10.090479 1.816639 40.134739 -0.000003 0.000024 -24.475435 0.000010 -0.000020 -16.809162 -0.000468 -0.000021 0.002834 -15.753520 16.241819 -9.901467 -8.979303 -0.802999 2.255536 -8.992978 0.142822 2.160685 -0.000001 0.001273 -0.000001 -14.975305 6.671732 -11.307640 -9.692745 -0.893127 0.976503 -9.280602 0.065835 0.846956 -0.001429 -0.000028 0.000003 -13.432310 -8.480373 -12.327399 -10.172017 1.848153 -1.435322 -10.023001 -0.083415 -1.118539 0.000673 -0.000001 0.000010 -9.594259 -24.059942 -16.358055 -9.397704 3.525081 -4.029739 -9.626251 -0.263542 -3.356416 -0.000817 -0.000008 -0.000012 0.000000 0.000000 0.000000 0.000000 0.000000 0.000000 -0.861689 2.009593 4.483945 -0.283709 -0.840341 19.155865 -1.282618 -0.888159 13.890260 0.315403 0.087163 -28.735485 0.000000 0.000000 0.000000 0.000000 0.000000 0.000000 0.000000 0.000000 0.000000 14.380033 -1.899769 -0.282226 0.531794 1.222933 24.726027 -8.106743 10.597868 15.061177 0.845637 0.076258 -30.149584 0.000000 0.000000 0.000000 0.000000 0.000000 0.000000 0.000000 0.000000 0.000000 
-0.063337 86.141083 4.046793 -3.170016 -1.809873 -9.687242 2.466556 -0.734077 5.408288 -5.641624 1.292194 5.139398 8.566522 -2.457381 6.293421 1.202852 0.732231 1.041963 -2.846453 -5.039080 10.970510 3.420269 -2.479216 -6.017284 -0.053642 -3.931112 -22.189638 0.000000 0.000000 0.000000 93.905121 -0.633457 4.303102 55.664333 -34.483616 8.363386 0.292997 11.096914 40.117111 -3.663699 19.685257 -9.086285 7.968056 -1.617151 41.020599 0.000012 0.000030 -19.597542 0.000022 0.000012 -13.629442 0.000012 -0.000005 -0.000016 4.620022 16.181587 -10.293684 6.266345 -0.938087 -1.584086 6.524226 0.011130 -1.523697 -0.000013 -0.000023 -0.000023 7.564531 6.647280 -11.293872 6.883636 -0.938023 -0.731315 6.967390 0.033869 -0.642973 0.000055 -0.000029 0.000001 13.923409 -8.555159 -10.621612 8.432160 1.885514 1.114060 8.297176 -0.050934 0.878906 0.000002 -0.000182 -0.000004 20.797157 -24.285181 -12.321928 9.030107 3.727363 3.298491 8.916142 -0.131865 2.834414 -0.000521 -0.000004 0.000060 0.000000 0.000000 0.000000 0.000000 0.000000 0.000000 -95.133339 1.551451 3.786056 -72.941589 37.716785 -13.835940 -3.930809 -19.664108 49.243759 -3.569091 -10.214716 -17.795334 -10.215479 1.812739 40.087494 0.000002 0.000026 -24.776924 -0.000014 -0.000017 -17.027109 -0.000867 -0.000011 0.002948 -15.928999 16.348278 -9.920690 -9.308224 -0.788118 2.316941 -9.390165 0.159157 2.207343 0.000024 0.001355 -0.000022 -15.190845 6.709121 -11.333623 -9.976312 -0.888234 0.995556 -9.623136 0.069975 0.863156 -0.000937 -0.000036 -0.000032 -13.662901 -8.495177 -12.566542 -10.347775 1.841598 -1.458096 -10.208231 -0.088459 -1.132948 0.000509 0.000002 0.000000 -9.872086 -24.048397 -16.752941 -9.495736 3.508936 -4.053075 -9.736814 -0.276286 -3.392742 -0.000723 -0.000001 -0.000029 0.000000 0.000000 0.000000 0.000000 0.000000 0.000000 -2.075153 2.417612 4.931631 -0.298240 -0.889015 19.042995 -0.750863 -0.878766 14.448315 0.247528 0.038503 -28.980652 0.000000 0.000000 0.000000 0.000000 0.000000 0.000000 0.000000 0.000000 0.000000 13.273831 -1.696550 0.863341 0.492868 1.177095 23.706623 -7.434638 10.307213 15.154350 0.790339 0.048164 -30.235136 0.000000 0.000000 0.000000 0.000000 0.000000 0.000000 0.000000 0.000000 0.000000 
0.939571 86.300179 4.309832 -2.716604 -2.307528 -9.903471 2.004960 -0.654932 5.580881 -5.493838 1.246970 5.021677 8.054488 -2.231463 6.435849 1.386118 0.696028 1.110818 -2.806906 -4.861112 11.108047 3.615703 -2.216358 -5.978996 -0.062029 -3.987231 -22.358400 0.000000 0.000000 0.000000 93.986595 -0.672573 3.950566 56.341637 -34.889812 7.695075 0.342011 11.301803 40.704494 -3.482103 19.153786 -9.413939 8.205706 -1.651523 40.911114 0.000013 0.000030 -20.134232 0.000022 0.000013 -13.987516 0.000011 -0.000006 -0.000014 5.499419 16.140610 -10.383039 6.496910 -0.930612 -1.605669 6.767996 0.018701 -1.549471 -0.000012 -0.000023 -0.000021 8.315504 6.621346 -11.385228 7.080575 -0.934779 -0.742598 7.153408 0.035789 -0.654895 0.000053 -0.000054 0.000004 14.446789 -8.493626 -10.687664 8.435356 1.877621 1.122873 8.286571 -0.055273 0.885608 0.000001 -0.000342 -0.000004 21.030727 -24.078926 -12.313869 8.835347 3.708917 3.320700 8.747819 -0.143101 2.844063 -0.000638 -0.000004 0.000045 0.000000 0.000000 0.000000 0.000000 0.000000 0.000000 -95.060867 1.566309 3.516135 -72.195763 38.090790 -13.682344 -3.882979 -19.595955 50.407608 -3.982666 -10.086452 -18.356911 -10.248283 1.808214 40.065887 -0.000000 0.000026 -24.905127 -0.000016 -0.000014 -17.113634 -0.001300 -0.000012 0.002576 -16.064213 16.392908 -10.019770 -9.543394 -0.782644 2.339939 -9.654342 0.165220 2.221680 0.000025 0.001305 -0.000021 -15.326761 6.730233 -11.400509 -10.191402 -0.886060 1.002787 -9.874613 0.071260 0.868363 -0.000634 -0.000037 -0.000053 -13.778210 -8.501616 -12.786945 -10.527648 1.836595 -1.468434 -10.380436 -0.090026 -1.140314 0.000479 0.000002 -0.000000 -9.973392 -24.030437 -17.130781 -9.647344 3.496401 -4.067135 -9.883185 -0.281226 -3.416958 -0.000547 -0.000003 -0.000029 0.000000 0.000000 0.000000 0.000000 0.000000 0.000000 -3.284785 2.893385 5.279696 -0.314088 -0.934179 18.995930 -0.276931 -0.678735 14.928829 0.188324 -0.003112 -29.177010 0.000000 0.000000 0.000000 0.000000 0.000000 0.000000 0.000000 0.000000 0.000000 12.030288 -1.230027 2.072724 0.454335 1.125814 22.713474 -6.760071 10.381048 15.226496 0.726241 0.031685 -30.282114 0.000000 0.000000 0.000000 0.000000 0.000000 0.000000 0.000000 0.000000 0.000000 
1.893961 86.421684 4.552809 -2.228912 -2.850604 -10.117395 1.571677 -0.564502 5.691299 -5.360049 1.222964 4.895052 7.586157 -1.955469 6.519247 1.489056 0.691035 1.188594 -2.837724 -4.743079 11.269387 3.747634 -2.059517 -5.934713 -0.030840 -4.022424 -22.473698 0.000000 0.000000 0.000000 94.033340 -0.696668 3.686259 56.913349 -35.383587 7.197829 0.397296 11.381025 40.844666 -3.275611 18.983612 -9.762218 8.378005 -1.675983 40.831581 0.000014 0.000029 -20.524284 0.000021 0.000015 -14.244145 0.000010 -0.000006 -0.000013 6.181289 16.106768 -10.493752 6.707436 -0.924125 -1.629653 6.986075 0.024689 -1.574286 -0.000011 -0.000023 -0.000020 8.915426 6.601041 -11.491679 7.259694 -0.932561 -0.752470 7.322830 0.037081 -0.665269 0.000051 -0.000067 0.000006 14.879988 -8.454069 -10.716636 8.477157 1.872436 1.129835 8.325679 -0.058068 0.890582 0.000001 -0.000387 -0.000006 21.221966 -23.951185 -12.252961 8.730530 3.697318 3.332130 8.654224 -0.150308 2.848026 -0.000702 -0.000004 0.000031 0.000000 0.000000 0.000000 0.000000 0.000000 0.000000 -94.921600 1.561382 3.293150 -71.467697 38.314819 -13.417131 -3.857362 -19.581957 51.370792 -4.135703 -10.472047 -18.618286 -10.271126 1.805489 40.046883 -0.000002 0.000025 -25.010223 -0.000012 -0.000013 -17.189585 -0.001649 -0.000013 0.002065 -16.286690 16.413225 -10.084040 -9.749058 -0.781744 2.350001 -9.874801 0.167172 2.226071 0.000026 0.001195 -0.000020 -15.525472 6.744521 -11.429359 -10.381660 -0.885388 1.005501 -10.088305 0.071431 0.869290 -0.000491 -0.000038 -0.000065 -13.904745 -8.510184 -12.914560 -10.706005 1.834100 -1.470016 -10.547750 -0.090075 -1.142177 0.000582 0.000003 -0.000000 -10.014989 -24.041159 -17.383394 -9.798822 3.491378 -4.063172 -10.026372 -0.281465 -3.423714 -0.000398 -0.000003 -0.000029 0.000000 0.000000 0.000000 0.000000 0.000000 0.000000 -4.477142 3.338689 5.535006 -0.331252 -0.972963 18.965929 0.174173 -0.375895 15.325418 0.121782 -0.043910 -29.317278 0.000000 0.000000 0.000000 0.000000 0.000000 0.000000 0.000000 0.000000 0.000000 10.766976 -0.639746 3.200001 0.420592 1.070699 21.860981 -6.079947 10.691885 15.253471 0.658448 0.026974 -30.284781 0.000000 0.000000 0.000000 0.000000 0.000000 0.000000 0.000000 0.000000 0.000000 
